<?xml version="1.0" encoding="utf-8"?>
<svg version="1.1" xmlns="http://www.w3.org/2000/svg" x="0px" y="0px" viewBox="0 0 65 55" >
	<style type="text/css">
		.logoGray{fill:#757575;}
		.logoRed{fill:#DF2D43;}
	</style>

	<path class="logoGray" d="M16.2,50.2c-0.1,0-0.2,0.1-0.4,0.1c-0.2,0-0.4,0-0.7,0.1c-0.3,0-0.6,0-0.9-0.1c-0.2-0.1-0.5-0.2-0.6-0.4c-0.2-0.2-0.3-0.3-0.4-0.6c-0.1-0.2-0.1-0.5-0.1-0.7v-4.1h-1.2v-0.9h1.2v-1.5h1.1v1.5h1.9v0.9h-1.9v4c0,0.1,0,0.3,0.1,0.4s0.1,0.2,0.2,0.3c0.1,0.1,0.2,0.2,0.4,0.2c0.1,0.1,0.3,0.1,0.5,0.1c0.1,0,0.3,0,0.4,0s0.3-0.1,0.4-0.1V50.2z"/>
	<path class="logoGray" d="M16.8,43.5h1.1l2,5.1h0l2.1-5.1H23l-4.3,10.3h-1l1.6-3.9L16.8,43.5z"/>
	<path class="logoGray" d="M27.6,49c0.3,0,0.6,0,1-0.1c0.3-0.1,0.7-0.2,1-0.3v1.3c-0.2,0.1-0.5,0.2-0.9,0.3c-0.4,0.1-0.9,0.1-1.3,0.1c-0.5,0-0.9-0.1-1.3-0.2c-0.4-0.1-0.8-0.3-1.1-0.6c-0.3-0.3-0.6-0.6-0.7-1s-0.3-0.9-0.3-1.5c0-0.6,0.1-1.1,0.3-1.6s0.4-0.8,0.7-1.1c0.3-0.3,0.6-0.5,1-0.7c0.4-0.1,0.8-0.2,1.1-0.2c0.4,0,0.8,0.1,1.1,0.2c0.3,0.1,0.6,0.3,0.9,0.6c0.3,0.3,0.5,0.6,0.6,1s0.2,0.9,0.2,1.5c0,0.2,0,0.4,0,0.6h-4.3c0,0.3,0.1,0.6,0.2,0.8c0.1,0.2,0.3,0.4,0.4,0.5c0.2,0.1,0.4,0.2,0.6,0.3S27.3,49,27.6,49zM26.9,44.7c-0.2,0-0.4,0-0.5,0.1S26.1,45,26,45.1c-0.1,0.1-0.2,0.3-0.3,0.4c-0.1,0.2-0.1,0.4-0.1,0.5h2.6c0-0.2,0-0.4-0.1-0.5s-0.1-0.3-0.2-0.4c-0.1-0.1-0.2-0.2-0.4-0.3C27.3,44.8,27.1,44.7,26.9,44.7z"/>
	<path class="logoGray" d="M49.7,49c0.3,0,0.6,0,1-0.1c0.3-0.1,0.7-0.2,1-0.3v1.3c-0.2,0.1-0.5,0.2-0.9,0.3c-0.4,0.1-0.9,0.1-1.3,0.1c-0.5,0-0.9-0.1-1.3-0.2s-0.8-0.3-1.1-0.6c-0.3-0.3-0.6-0.6-0.7-1C46.1,48.1,46,47.6,46,47c0-0.6,0.1-1.1,0.3-1.6s0.4-0.8,0.7-1.1c0.3-0.3,0.6-0.5,1-0.7c0.4-0.1,0.8-0.2,1.1-0.2c0.4,0,0.8,0.1,1.1,0.2s0.6,0.3,0.9,0.6s0.5,0.6,0.6,1s0.2,0.9,0.2,1.5c0,0.2,0,0.4,0,0.6h-4.3c0,0.3,0.1,0.6,0.2,0.8c0.1,0.2,0.3,0.4,0.4,0.5c0.2,0.1,0.4,0.2,0.6,0.3C49.1,49,49.4,49,49.7,49zM49,44.7c-0.2,0-0.4,0-0.5,0.1s-0.3,0.2-0.4,0.3c-0.1,0.1-0.2,0.3-0.3,0.4s-0.1,0.4-0.1,0.5h2.6c0-0.2,0-0.4-0.1-0.5s-0.1-0.3-0.2-0.4c-0.1-0.1-0.2-0.2-0.4-0.3S49.2,44.7,49,44.7z"/>
	<path class="logoGray" d="M34,47.9l-1.8,2.4h-1.9l2.7-3.5l-2.5-3.3h2l1.6,2.3l1.6-2.3h2l-2.6,3.3l2.7,3.5h-2L34,47.9z"/>
	<path class="logoGray" d="M42.1,50.3c-0.4,0-0.7-0.1-1-0.2c-0.3-0.1-0.5-0.3-0.7-0.5h0c0,0.1,0,0.2,0,0.4c0,0.2,0,0.3,0,0.5v3.1h-1.6V43.6h1.4l0.1,0.7h0c0.2-0.3,0.5-0.5,0.8-0.6c0.3-0.2,0.7-0.3,1.1-0.3c0.4,0,0.7,0.1,1,0.2c0.3,0.1,0.6,0.3,0.9,0.6s0.5,0.6,0.6,1s0.2,0.9,0.2,1.5c0,0.6-0.1,1.1-0.3,1.6c-0.2,0.4-0.4,0.8-0.7,1.1c-0.3,0.3-0.6,0.5-0.9,0.6S42.4,50.3,42.1,50.3z M41.9,44.8c-0.3,0-0.5,0.1-0.8,0.2s-0.5,0.3-0.7,0.5v2.9c0.1,0.1,0.1,0.2,0.2,0.2c0.1,0.1,0.2,0.1,0.3,0.2c0.1,0.1,0.2,0.1,0.4,0.2c0.1,0,0.3,0.1,0.4,0.1c0.2,0,0.5-0.1,0.7-0.2c0.2-0.1,0.4-0.3,0.5-0.4s0.2-0.4,0.3-0.7s0.1-0.6,0.1-0.9c0-0.4,0-0.7-0.1-0.9s-0.2-0.5-0.3-0.7c-0.1-0.2-0.3-0.3-0.5-0.4C42.3,44.8,42.1,44.8,41.9,44.8z"/>
	<path class="logoGray" d="M57.2,44.9H57c-0.5,0-0.9,0.1-1.3,0.2c-0.4,0.1-0.7,0.4-0.9,0.7v4.5h-1.6v-6.7h1.3l0.1,0.9h0c0.2-0.3,0.5-0.6,0.8-0.8c0.3-0.2,0.7-0.3,1.2-0.3c0.2,0,0.3,0,0.4,0V44.9z"/>
	<path class="logoGray" d="M63,50.1c-0.2,0.1-0.4,0.1-0.6,0.1c-0.3,0-0.5,0-0.7,0c-0.6,0-1-0.1-1.4-0.3s-0.6-0.4-0.7-0.8c-0.1-0.2-0.2-0.6-0.2-1v-3.5h-1.2v-1.3h1.2v-1.5H61v1.5h2v1.3h-2v3.3c0,0.3,0,0.4,0.1,0.6c0.1,0.2,0.4,0.3,0.8,0.3c0.2,0,0.4,0,0.6,0c0.2,0,0.4-0.1,0.5-0.1V50.1z"/>
	<path class="logoGray" d="M6.1,49.3c-1.3,0-2.4-1.1-2.4-2.4c0-1.3,1.1-2.4,2.4-2.4c0.7,0,1.2,0.3,1.7,0.7l0.8-0.8c-0.6-0.6-1.5-1-2.4-1c-1.9,0-3.4,1.5-3.4,3.4c0,1.9,1.5,3.4,3.4,3.4c0.9,0,1.8-0.4,2.4-1l-0.8-0.8C7.4,49,6.8,49.3,6.1,49.3z"/>
	<path class="logoGray" d="M9.6,50.3v-6.8h1.1v6.8H9.6z M10.7,41.9c0-0.3-0.3-0.6-0.6-0.6c-0.3,0-0.6,0.3-0.6,0.6c0,0.3,0.3,0.6,0.6,0.6C10.5,42.5,10.7,42.2,10.7,41.9z"/>

	<rect x="45.3" y="18.8" class="logoRed" width="17.7" height="17.7"/>
	<rect x="24" y="1.2" class="logoRed" width="17.7" height="35.4"/>
	<rect x="2.7" y="10" class="logoRed" width="17.7" height="26.5"/>
</svg>
